HIERARCHY
ROOT Hips
{
  OFFSET 0 0 0
  CHANNELS 6 Xposition Yposition Zposition Zrotation Yrotation Xrotation
  JOINT LeftThigh
  {
    OFFSET 8.409438 0 -5.917753
    CHANNELS 3 Zrotation Yrotation Xrotation
    JOINT LeftLeg
    {
      OFFSET 0 0 -42.358652
      CHANNELS 3 Zrotation Yrotation Xrotation
      JOINT LeftFoot
      {
        OFFSET 0 0 -39.357303
        CHANNELS 3 Zrotation Yrotation Xrotation
      }
    }
  }
  JOINT RightThigh
  {
    OFFSET -8.409438 0 -5.917753
    CHANNELS 3 Zrotation Yrotation Xrotation
    JOINT RightLeg
    {
      OFFSET 0 0 -42.358652
      CHANNELS 3 Zrotation Yrotation Xrotation
      JOINT RightFoot
      {
        OFFSET 0 0 -39.357303
        CHANNELS 3 Zrotation Yrotation Xrotation
      }
    }
  }
  JOINT SpineLow
  {
    OFFSET 0 0 4.719101
    CHANNELS 3 Zrotation Yrotation Xrotation
    JOINT SpineMid
    {
      OFFSET 0 0 12.899191
      CHANNELS 3 Zrotation Yrotation Xrotation
      JOINT Chest
      {
        OFFSET 0 0 12.899191
        CHANNELS 3 Zrotation Yrotation Xrotation
        JOINT LeftShoulder
        {
          OFFSET 7.550562 1.41573 9.438202
          CHANNELS 3 Zrotation Yrotation Xrotation
          JOINT LeftArm
          {
            OFFSET 9.155056 0 4.247191
            CHANNELS 3 Zrotation Yrotation Xrotation
            JOINT LeftForearm
            {
              OFFSET 0 0 25.771955
              CHANNELS 3 Zrotation Yrotation Xrotation
              JOINT LeftHand
              {
                OFFSET 0 0 25.197169
                CHANNELS 3 Zrotation Yrotation Xrotation
              }
            }
          }
        }
        JOINT RightShoulder
        {
          OFFSET -7.550562 1.41573 9.438202
          CHANNELS 3 Zrotation Yrotation Xrotation
          JOINT RightArm
          {
            OFFSET -9.155056 0 4.247191
            CHANNELS 3 Zrotation Yrotation Xrotation
            JOINT RightForearm
            {
              OFFSET 0 0 -25.771955
              CHANNELS 3 Zrotation Yrotation Xrotation
              JOINT RightHand
              {
                OFFSET 0 0 -25.197169
                CHANNELS 3 Zrotation Yrotation Xrotation
              }
            }
          }
        }
        JOINT Neck
        {
          OFFSET 0 0 15.101124
          CHANNELS 3 Zrotation Yrotation Xrotation
          JOINT Head
          {
            OFFSET 0 0 11.325843
            CHANNELS 3 Zrotation Yrotation Xrotation
            End Site
            {
              OFFSET 0 0 14.157303
            }
          }
        }
      }
    }
  }
}
MOTION
Frames: 13
Frame Time: 0.0
0.0  93.25843  0.0  -5.546347  -33.688477  -85.205808  43.589308  -25.51473  -46.596066  0.665633  12.646386  41.950696  -1.143226  2.307741  1.019063  -15.900437  22.045152  -4.359685  -2.94936  7.898716  19.320483  -0.809153  3.039938  -4.565683  1.510782  0.268653  -0.207847  4.127388  0.746981  -0.551117  4.127388  0.746981  -0.551117  -15.462925  9.894534  2.893498  -145.592543  70.59  -93.482127  -28.597771  8.876802  86.252788  84.022008  -8.601504  -2.67367  -7.110155  -12.892669  18.565936  84.676906  32.708442  32.244772  -7.960969  -5.643033  -118.887402  71.965705  -18.387139  -30.751719  -12.137478  -0.327207  4.117008  -9.101373  -0.32736  3.082691  
0.0  93.25843  0.0  -5.709218  -33.563791  -84.832167  43.652811  -25.999078  -47.04944  1.700459  12.62409  41.936584  -0.811571  2.458049  1.135976  -15.771728  21.777983  -4.500363  -2.590094  7.598498  19.2721  -1.032625  2.994184  -4.454911  1.549239  0.256383  -0.273513  4.231882  0.717972  -0.730874  4.231882  0.717972  -0.730875  -15.469713  9.761772  2.817066  -148.760611  70.588723  -96.682856  -28.480449  9.243197  86.169027  84.170294  -8.662506  -3.016635  -7.161116  -12.874243  18.653286  84.202489  32.746769  32.036937  -8.925225  -4.474224  -118.207476  72.56431  -17.447536  -29.186712  -12.366546  -0.504693  4.043762  -9.271996  -0.460613  3.024057  
0.0  93.25843  0.0  -5.954103  -33.388043  -84.4829  43.873749  -26.287133  -47.528328  2.474151  12.469626  41.900615  -0.592196  2.61442  1.274476  -15.875626  21.565672  -4.631154  -2.351168  7.365548  19.094566  -1.049138  2.815323  -4.251461  1.583454  0.178619  -0.350305  4.3256  0.510912  -0.945379  4.3256  0.510912  -0.945379  -14.92915  10.080461  2.970955  -152.206195  70.551381  -99.950542  -28.20881  9.681706  86.191404  84.470544  -8.655318  -3.575735  -7.466565  -12.575116  18.832221  84.030657  32.671725  32.001326  -10.120751  -3.153995  -117.52772  72.891423  -16.540711  -27.228038  -12.669457  -0.462672  4.00254  -9.499498  -0.430241  2.993823  
0.0  93.25843  0.0  -6.229189  -33.057173  -84.127825  44.163683  -26.337974  -48.084252  2.920552  12.311055  41.811626  -0.341426  2.742409  1.4193  -16.15645  21.379334  -4.70704  -2.257008  7.172376  18.760088  -0.931178  2.681661  -4.051993  1.600854  0.127929  -0.391977  4.373612  0.375431  -1.062437  4.373611  0.375431  -1.062437  -14.761279  10.104934  2.965426  -155.669139  70.459517  -103.278863  -27.919964  9.680826  85.939405  84.934454  -8.438588  -4.22214  -7.369991  -12.452482  19.006227  83.467822  32.793944  31.809457  -11.555582  -1.898233  -116.536734  73.282845  -15.313245  -24.990122  -12.929436  -0.515607  3.903471  -9.694193  -0.469581  2.918223  
0.0  93.25843  0.0  -6.509309  -32.726611  -83.791878  44.59091  -26.203144  -48.630516  3.184004  12.122363  41.650577  -0.132611  2.820542  1.557655  -16.326029  21.21429  -4.639979  -2.066389  6.761443  18.433281  -0.898953  2.597667  -3.881287  1.570491  0.021509  -0.421188  4.292258  0.086104  -1.149321  4.292258  0.086104  -1.149321  -14.189016  10.572594  2.979081  -158.913071  70.403712  -106.397155  -27.053761  9.251953  85.734276  85.349246  -8.079013  -5.108448  -7.044033  -12.055503  19.071445  82.964089  32.90752  31.742746  -12.954616  -0.386816  -115.610002  73.611008  -14.037905  -22.197191  -13.069482  -0.380234  3.750739  -9.800183  -0.365622  2.806434  
0.0  93.25843  0.0  -6.764626  -32.184386  -83.434906  44.873067  -25.954965  -49.205957  3.296255  12.028161  41.428033  0.14552  2.879596  1.751315  -16.452029  21.028803  -4.411008  -2.188405  6.468922  17.878371  -0.937901  2.550077  -3.737509  1.539744  -0.074162  -0.481805  4.21003  -0.171946  -1.321076  4.21003  -0.171946  -1.321076  -13.64176  11.075168  3.271076  -162.147765  70.353442  -109.406259  -26.454395  8.520451  85.604055  85.693502  -7.323461  -5.270293  -6.55281  -11.679182  19.45451  81.995125  33.331379  31.447378  -14.565401  1.394795  -114.655883  73.880819  -12.552476  -19.300899  -13.277009  -0.2166  3.744464  -9.956865  -0.243968  2.805209  
0.0  93.25843  0.0  -6.899985  -31.749252  -83.191215  45.014528  -25.639132  -49.709796  3.547665  11.872826  41.413933  0.411537  2.832727  1.894261  -16.12666  20.941007  -3.930111  -2.973837  5.935926  17.334228  -0.93339  2.647481  -3.642622  1.524898  -0.170601  -0.535053  4.17175  -0.432357  -1.472619  4.17175  -0.432357  -1.472619  -13.01514  11.710825  3.527803  -165.590039  70.295835  -112.593115  -25.728865  7.391773  85.523811  85.747914  -6.49418  -4.401215  -6.086694  -11.241395  19.776984  81.134451  33.83353  31.153817  -17.212194  4.767378  -114.320976  72.814873  -11.44016  -16.603233  -14.147142  -0.219325  3.634402  -10.609488  -0.248821  2.722451  
0.0  93.25843  0.0  -7.114759  -31.040907  -83.057212  44.966166  -25.469095  -49.994337  3.720174  11.794387  41.337786  0.650877  2.740078  1.904241  -15.575853  20.756632  -3.01787  -3.562498  5.617931  16.534712  -1.272522  2.669807  -3.486542  1.505934  -0.38892  -0.672338  4.127071  -1.02065  -1.8613  4.127071  -1.02065  -1.8613  -12.471267  13.162992  4.242894  -169.130413  70.178605  -115.953261  -24.830292  5.999219  85.440364  85.521297  -5.476019  -3.842365  -5.751702  -10.016313  20.776708  80.093266  34.527348  30.596454  -21.027597  8.928859  -113.35588  71.486655  -9.643654  -14.973338  -14.51633  0.519483  3.931402  -10.891049  0.296413  2.962857  
0.0  93.25843  0.0  -7.062601  -30.503623  -83.036015  44.787051  -25.163939  -50.132373  3.97146  11.685284  41.299383  0.966677  2.70522  2.047249  -14.788167  20.686944  -2.058046  -4.996258  5.195552  15.747371  -1.341421  2.828977  -3.369853  1.556891  -0.469894  -0.74791  4.270129  -1.235521  -2.07383  4.270129  -1.235521  -2.07383  -12.459935  13.954429  4.547502  -172.210721  70.005838  -119.090093  -23.707888  4.54497  85.319715  85.191751  -4.499746  -3.2772  -5.709668  -9.508614  21.296546  79.208574  35.371447  30.133466  -24.251391  12.603335  -112.093126  71.0947  -6.937625  -13.518169  -15.478483  0.645155  4.030188  -11.613593  0.382066  3.041269  
0.0  93.25843  0.0  -7.250021  -29.697209  -83.064673  44.468791  -25.168002  -50.298852  4.095508  11.771215  41.249743  0.998351  2.687748  2.140902  -13.782103  20.47021  -0.774583  -5.914549  4.888989  14.963424  -1.820721  2.878357  -3.242099  1.61355  -0.512389  -0.776455  4.426975  -1.347891  -2.15573  4.426975  -1.347891  -2.15573  -12.697247  14.336827  4.779005  -174.90548  69.925822  -121.857285  -22.384387  3.249648  85.229564  85.203167  -3.51267  -2.860826  -5.648272  -9.525738  21.526032  77.880133  36.48906  29.587298  -26.305876  14.969814  -111.242103  72.232908  -4.984709  -12.08945  -16.153366  0.676571  4.129093  -12.12011  0.398598  3.117258  
0.0  93.25843  0.0  -7.318169  -28.863804  -83.248469  43.838979  -25.205391  -50.384821  3.93056  12.166623  41.166501  2.005429  2.489616  2.81511  -12.73204  20.345496  0.53492  -6.857008  4.705586  14.158162  -2.380373  2.711965  -2.955366  1.609573  -0.52962  -0.770395  4.416573  -1.395495  -2.14026  4.416572  -1.395495  -2.14026  -13.689698  14.199742  4.725445  -176.078191  69.458516  -124.211546  -20.846507  2.056901  85.204247  85.689769  -2.304255  -2.396484  -5.308248  -9.804889  21.360992  76.385339  37.843046  29.116398  -26.993082  16.212378  -110.357639  73.656328  -3.737469  -11.323802  -16.947233  0.459189  4.093989  -12.714111  0.231035  3.086031  
0.0  93.25843  0.0  -7.396413  -27.82205  -83.303828  43.017146  -25.189568  -50.523531  3.721095  12.533889  41.329185  2.073296  2.460395  2.738554  -12.358153  20.160893  1.532936  -7.620659  4.471913  13.484356  -2.727087  2.724534  -2.831963  1.547223  -0.532791  -0.749915  4.245826  -1.407518  -2.083225  4.245826  -1.407518  -2.083225  -13.391342  14.249369  4.831126  -177.517812  69.618286  -125.823668  -19.136675  0.691184  85.259292  86.512859  -0.832706  -1.439199  -4.553969  -10.090334  20.836901  74.272752  39.524561  27.975965  -26.65203  16.743623  -109.35618  74.762045  -3.173555  -11.251121  -17.25878  0.323793  3.96879  -12.946804  0.130843  2.988562  
0.0  93.25843  0.0  -7.040896  -28.44711  -83.876913  43.158914  -25.019461  -50.071338  3.48351  12.902497  41.634646  2.449515  2.420551  2.824928  -10.719748  20.720317  2.517474  -8.161541  4.224099  12.866491  -2.845651  2.735822  -2.718181  1.692563  -0.446241  -0.6641  4.638754  -1.172499  -1.845629  4.638754  -1.172499  -1.845629  -12.915019  14.091787  4.924762  -178.092309  69.865847  -126.760924  -17.195987  -0.98991  85.495948  87.55214  0.937446  0.681429  -3.618795  -10.576482  20.044945  72.384843  41.359257  26.773021  -25.922967  16.854626  -108.242242  75.358469  -3.027799  -11.821703  -17.562921  0.082986  3.849315  -13.173336  -0.048486  2.892208  
